<svg class="diagram-root" style="background: #f5f6f6" xmlns="http://www.w3.org/2000/svg" xmlns:xlink="http://www.w3.org/1999/xlink"><style>.diagram-root { font-family: "Helvetica Neue", sans-serif; font-size: 12px; } .t { overflow: visible; } .t-bg { y: 40; fill: #fff;   } .th { fill: #005aa0;   } .tht { fill: #fff; font-size: 14px;  } .tf { fill: #323c46; overflow: visible; } .tf.pk { fill: #005aa0; font-weight: bold; } .tf.fk { font-weight: bold; } .ty { fill: #adb1b5; font-weight: normal; text-anchor: end; } .r { fill: transparent; stroke: #c3c3c3; stroke-width: 1; } .l { stroke: 1; } .i { fill: #c2c7ce; stroke: #c2c7ce; } .i.ix { fill: #afb3b6; stroke: #000; } .fa { fill: transparent; overflow: visible; } .fa .bg.hover { fill: #f7f7f7; } .c { cy: 12; r: 4; stroke: #d2d2dc; fill: #d2d2dc; } .hr { fill: transparent; stroke: #323c46; stroke-opacity: 0.035; stroke-width: 13; } .dc { stroke: #fa5a3c; fill: #fa5a3c; } .x { stroke: white; stroke-width: 1; } .hl .th { fill: #1b9bff; } .hl .tht {  } .fhl .bg { fill: #e7f4ff; } .fhls .bg {  } .r.hl { stroke: #1b9bff; } .dim { opacity: 0.25; }</style><g class="drawing-wrapper" transform="translate(-595, 20) scale(1,1)"><g class="rs"><path d="M 909 484 m -1, 0 a 1,1 0 1,0 2,0 a 1,1 0 1,0 -2,0 M 909 484 m -0.5, 0 a 0.5,0.5 0 1,0 1,0 a 0.5,0.5 0 1,0 -1,0  M909 484 L909 484 897 484 M 909 490 m -1, 0 a 1,1 0 1,0 2,0 a 1,1 0 1,0 -2,0 M 909 490 m -0.5, 0 a 0.5,0.5 0 1,0 1,0 a 0.5,0.5 0 1,0 -1,0  M909 490 L909 490 902 484 909 478 M 909 478 m -1, 0 a 1,1 0 1,0 2,0 a 1,1 0 1,0 -2,0 M 909 478 m -0.5, 0 a 0.5,0.5 0 1,0 1,0 a 0.5,0.5 0 1,0 -1,0  M897 484 Q 880.5 484, 864 275.5 T 831 67 M 819 67 m -1, 0 a 1,1 0 1,0 2,0 a 1,1 0 1,0 -2,0 M 819 67 m -0.5, 0 a 0.5,0.5 0 1,0 1,0 a 0.5,0.5 0 1,0 -1,0  M819 67 L819 67 831 67 M825 73 L825 73 825 61" id="h1139284389" class="r"></path><path d="M 909 509 m -1, 0 a 1,1 0 1,0 2,0 a 1,1 0 1,0 -2,0 M 909 509 m -0.5, 0 a 0.5,0.5 0 1,0 1,0 a 0.5,0.5 0 1,0 -1,0  M909 509 L909 509 897 509 M 909 515 m -1, 0 a 1,1 0 1,0 2,0 a 1,1 0 1,0 -2,0 M 909 515 m -0.5, 0 a 0.5,0.5 0 1,0 1,0 a 0.5,0.5 0 1,0 -1,0  M909 515 L909 515 902 509 909 503 M 909 503 m -1, 0 a 1,1 0 1,0 2,0 a 1,1 0 1,0 -2,0 M 909 503 m -0.5, 0 a 0.5,0.5 0 1,0 1,0 a 0.5,0.5 0 1,0 -1,0  M897 509 C 847 509, 803.2 67, 970 67 M 982 67 m -1, 0 a 1,1 0 1,0 2,0 a 1,1 0 1,0 -2,0 M 982 67 m -0.5, 0 a 0.5,0.5 0 1,0 1,0 a 0.5,0.5 0 1,0 -1,0  M982 67 L982 67 970 67 M976 73 L976 73 976 61" id="h1607168654" class="r"></path><path d="M 1006 336 m -1, 0 a 1,1 0 1,0 2,0 a 1,1 0 1,0 -2,0 M 1006 336 m -0.5, 0 a 0.5,0.5 0 1,0 1,0 a 0.5,0.5 0 1,0 -1,0  M1006 336 L1006 336 1018 336 M 1006 342 m -1, 0 a 1,1 0 1,0 2,0 a 1,1 0 1,0 -2,0 M 1006 342 m -0.5, 0 a 0.5,0.5 0 1,0 1,0 a 0.5,0.5 0 1,0 -1,0  M1006 342 L1006 342 1013 336 1006 330 M 1006 330 m -1, 0 a 1,1 0 1,0 2,0 a 1,1 0 1,0 -2,0 M 1006 330 m -0.5, 0 a 0.5,0.5 0 1,0 1,0 a 0.5,0.5 0 1,0 -1,0  M1018 336 C 1068 336, 1180.2 67, 831 67 M 819 67 m -1, 0 a 1,1 0 1,0 2,0 a 1,1 0 1,0 -2,0 M 819 67 m -0.5, 0 a 0.5,0.5 0 1,0 1,0 a 0.5,0.5 0 1,0 -1,0  M819 67 L819 67 831 67 M825 73 L825 73 825 61" id="h3177548053" class="r"></path><path d="M 617 495 m -1, 0 a 1,1 0 1,0 2,0 a 1,1 0 1,0 -2,0 M 617 495 m -0.5, 0 a 0.5,0.5 0 1,0 1,0 a 0.5,0.5 0 1,0 -1,0  M617 495 L617 495 605 495 M 617 501 m -1, 0 a 1,1 0 1,0 2,0 a 1,1 0 1,0 -2,0 M 617 501 m -0.5, 0 a 0.5,0.5 0 1,0 1,0 a 0.5,0.5 0 1,0 -1,0  M617 501 L617 501 610 495 617 489 M 617 489 m -1, 0 a 1,1 0 1,0 2,0 a 1,1 0 1,0 -2,0 M 617 489 m -0.5, 0 a 0.5,0.5 0 1,0 1,0 a 0.5,0.5 0 1,0 -1,0  M605 495 C 555 495, 534 67, 640 67 M 652 67 m -1, 0 a 1,1 0 1,0 2,0 a 1,1 0 1,0 -2,0 M 652 67 m -0.5, 0 a 0.5,0.5 0 1,0 1,0 a 0.5,0.5 0 1,0 -1,0  M652 67 L652 67 640 67 M646 73 L646 73 646 61" id="h3000826536" class="r"></path><path d="M 1232 331 m -1, 0 a 1,1 0 1,0 2,0 a 1,1 0 1,0 -2,0 M 1232 331 m -0.5, 0 a 0.5,0.5 0 1,0 1,0 a 0.5,0.5 0 1,0 -1,0  M1232 331 L1232 331 1244 331 M 1232 337 m -1, 0 a 1,1 0 1,0 2,0 a 1,1 0 1,0 -2,0 M 1232 337 m -0.5, 0 a 0.5,0.5 0 1,0 1,0 a 0.5,0.5 0 1,0 -1,0  M1232 337 L1232 337 1239 331 1232 325 M 1232 325 m -1, 0 a 1,1 0 1,0 2,0 a 1,1 0 1,0 -2,0 M 1232 325 m -0.5, 0 a 0.5,0.5 0 1,0 1,0 a 0.5,0.5 0 1,0 -1,0  M1244 331 C 1294 331, 1341.4 67, 1165 67 M 1153 67 m -1, 0 a 1,1 0 1,0 2,0 a 1,1 0 1,0 -2,0 M 1153 67 m -0.5, 0 a 0.5,0.5 0 1,0 1,0 a 0.5,0.5 0 1,0 -1,0  M1153 67 L1153 67 1165 67 M1159 73 L1159 73 1159 61" id="h1397587031" class="r"></path><path d="M 1086 356 m -1, 0 a 1,1 0 1,0 2,0 a 1,1 0 1,0 -2,0 M 1086 356 m -0.5, 0 a 0.5,0.5 0 1,0 1,0 a 0.5,0.5 0 1,0 -1,0  M1086 356 L1086 356 1074 356 M 1086 362 m -1, 0 a 1,1 0 1,0 2,0 a 1,1 0 1,0 -2,0 M 1086 362 m -0.5, 0 a 0.5,0.5 0 1,0 1,0 a 0.5,0.5 0 1,0 -1,0  M1086 362 L1086 362 1079 356 1086 350 M 1086 350 m -1, 0 a 1,1 0 1,0 2,0 a 1,1 0 1,0 -2,0 M 1086 350 m -0.5, 0 a 0.5,0.5 0 1,0 1,0 a 0.5,0.5 0 1,0 -1,0  M1074 356 Q 1013.25 356, 952.5 211.5 T 831 67 M 819 67 m -1, 0 a 1,1 0 1,0 2,0 a 1,1 0 1,0 -2,0 M 819 67 m -0.5, 0 a 0.5,0.5 0 1,0 1,0 a 0.5,0.5 0 1,0 -1,0  M819 67 L819 67 831 67 M825 73 L825 73 825 61" id="h2286254435" class="r"></path></g><g class="hrs"></g><g class="ts"><svg width="146" height="100" x="909" y="427" id="h1090417462" class="t"><rect height="40" width="146" class="th"></rect><text x="13" y="25" class="tht">dept_emp</text><rect height="60" width="146" class="t-bg" y="40"></rect><text x="13" y="61" class="tf fk">emp_no<tspan x="133" class="ty">int</tspan></text><text x="13" y="86" class="tf fk">dept_no<tspan x="133" class="ty">varchar(8)</tspan></text></svg><svg width="167" height="200" x="652" y="10" id="h1639608377" class="t"><rect height="40" width="167" class="th"></rect><text x="13" y="25" class="tht">employees</text><rect height="160" width="167" class="t-bg" y="40"></rect><text x="13" y="61" class="tf pk">emp_no<tspan x="154" class="ty">int</tspan></text><path d="M7,14A2,2 0 0,1 5,12A2,2 0 0,1 7,10A2,2 0 0,1 9,12A2,2 0 0,1 7,14M12.65,10C11.83,7.67 9.61,6 7, 6A6, 6 0 0, 0 1, 12A6, 6 0 0, 0 7, 18C9.61, 18 11.83, 16.33 12.65, 14H17V18H21V14H23V10H12.65Z" class="i pk" transform="translate(121, 48) scale(0.65)"></path><text x="13" y="86" class="tf">birth_date<tspan x="154" class="ty">date,</tspan></text><text x="13" y="111" class="tf">first_name<tspan x="154" class="ty">varchar(35)</tspan></text><text x="13" y="136" class="tf">last_name<tspan x="154" class="ty">varchar(35)</tspan></text><text x="13" y="161" class="tf">gender<tspan x="154" class="ty">varchar(1)</tspan></text><text x="13" y="186" class="tf">hire_date<tspan x="154" class="ty">date</tspan></text></svg><svg width="105" height="100" x="901" y="279" id="h2472833127" class="t"><rect height="40" width="105" class="th"></rect><text x="13" y="25" class="tht">salaries</text><rect height="60" width="105" class="t-bg" y="40"></rect><text x="13" y="61" class="tf fk">emp_no<tspan x="92" class="ty">int</tspan></text><text x="13" y="86" class="tf">salary<tspan x="92" class="ty">int</tspan></text></svg><svg width="147" height="100" x="617" y="438" id="h311790747" class="t"><rect height="40" width="147" class="th"></rect><text x="13" y="25" class="tht">titles</text><rect height="60" width="147" class="t-bg" y="40"></rect><text x="13" y="61" class="tf fk">emp_no<tspan x="134" class="ty">varcar(50)</tspan></text><text x="13" y="86" class="tf">title<tspan x="134" class="ty">varchar(20)</tspan></text></svg><svg width="146" height="100" x="1086" y="274" id="h1676682957" class="t"><rect height="40" width="146" class="th"></rect><text x="13" y="25" class="tht">dept_manager</text><rect height="60" width="146" class="t-bg" y="40"></rect><text x="13" y="61" class="tf fk">dept_no<tspan x="133" class="ty">varchar(8)</tspan></text><text x="13" y="86" class="tf fk">emp_no<tspan x="133" class="ty">int</tspan></text></svg><svg width="171" height="100" x="982" y="10" id="h475896179" class="t"><rect height="40" width="171" class="th"></rect><text x="13" y="25" class="tht">departments</text><rect height="60" width="171" class="t-bg" y="40"></rect><text x="13" y="61" class="tf pk">dept_no<tspan x="158" class="ty">varchar(8)</tspan></text><path d="M7,14A2,2 0 0,1 5,12A2,2 0 0,1 7,10A2,2 0 0,1 9,12A2,2 0 0,1 7,14M12.65,10C11.83,7.67 9.61,6 7, 6A6, 6 0 0, 0 1, 12A6, 6 0 0, 0 7, 18C9.61, 18 11.83, 16.33 12.65, 14H17V18H21V14H23V10H12.65Z" class="i pk" transform="translate(83, 48) scale(0.65)"></path><text x="13" y="86" class="tf">dept_name<tspan x="158" class="ty">varchar(40)</tspan></text></svg></g></g><text class="qdbd-link" x="10" y="20">www.quickdatabasediagrams.com</text></svg>